<svg xmlns="http://www.w3.org/2000/svg" viewBox="0 0 100 100"><path d="M59 101H1V1h100v100H59m18.478-6h11.515c0-7.583.23-14.4-.057-21.193-.375-8.888-8.582-16.702-17.484-16.776-13.643-.113-27.29-.167-40.93.036-5.648.084-10.22 2.625-13.686 7.356-6.972 9.514-2.48 20.093-3.99 30.577h64.632M36.992 39.486c5.277 5.914 16.373 7.273 23.026 3.595 7.242-4.003 10.952-10.891 9.978-20.068C68.73 11.075 54.318 3.383 43.35 8.118c-11.32 4.888-15.632 20.158-6.358 31.368z"/><path fill="#00B569" d="M76.982 95H12.846c1.51-10.484-2.982-21.063 3.99-30.577 3.466-4.73 8.038-7.272 13.686-7.356 13.64-.203 27.287-.149 40.93-.036 8.902.074 17.109 7.888 17.484 16.776.287 6.794.057 13.61.057 21.193h-12.01z"/><path fill="#FEAE42" d="M36.722 39.226c-9.004-10.95-4.692-26.22 6.628-31.108 10.968-4.735 25.38 2.957 26.646 14.895.974 9.177-2.736 16.065-9.978 20.068-6.653 3.678-17.75 2.319-23.296-3.855z"/></svg>