<svg version="1.1" id="Layer_1" xmlns="http://www.w3.org/2000/svg" xmlns:xlink="http://www.w3.org/1999/xlink" x="0px"
	y="0px" width="100%" viewBox="0 0 100 100" enable-background="new 0 0 100 100" xml:space="preserve">
	<path fill="#FEAE42" opacity="1.000000" stroke="none" d="
M59.000000,101.000000 
	C39.333336,101.000000 20.166674,101.000000 1.000008,101.000000 
	C1.000005,67.666679 1.000005,34.333351 1.000003,1.000021 
	C34.333317,1.000014 67.666634,1.000014 100.999969,1.000007 
	C100.999977,34.333313 100.999977,67.666626 100.999985,100.999969 
	C87.166664,101.000000 73.333336,101.000000 59.000000,101.000000 
M77.478241,95.000046 
	C81.227036,95.000046 84.975830,95.000046 88.992775,95.000046 
	C88.992775,87.416733 89.222519,80.600792 88.935768,73.806641 
	C88.560684,64.919373 80.354179,57.104828 71.452194,57.031082 
	C57.809212,56.918056 44.162567,56.864262 30.521671,57.067314 
	C24.874319,57.151379 20.302427,59.692490 16.836346,64.422676 
	C9.864466,73.937256 14.356608,84.515717 12.845820,95.000046 
	C34.614746,95.000046 55.550308,95.000046 77.478241,95.000046 
M36.991795,39.486237 
	C42.268784,45.399654 53.365326,46.759041 60.018307,43.081314 
	C67.260269,39.078003 70.970001,32.190002 69.996071,23.013266 
	C68.729073,11.075170 54.317574,3.382790 43.350117,8.118061 
	C32.029545,13.005792 27.717503,28.276327 36.991795,39.486237 
z" />
	<path fill="#1c7773" opacity="1.000000" stroke="none" d="
M76.982056,95.000046 
	C55.550308,95.000046 34.614746,95.000046 12.845820,95.000046 
	C14.356608,84.515717 9.864466,73.937256 16.836346,64.422676 
	C20.302427,59.692490 24.874319,57.151379 30.521671,57.067314 
	C44.162567,56.864262 57.809212,56.918056 71.452194,57.031082 
	C80.354179,57.104828 88.560684,64.919373 88.935768,73.806641 
	C89.222519,80.600792 88.992775,87.416733 88.992775,95.000046 
	C84.975830,95.000046 81.227036,95.000046 76.982056,95.000046 
z" />
	<path fill="#288f42" opacity="1.000000" stroke="none" d="
M36.721954,39.225670 
	C27.717503,28.276327 32.029545,13.005792 43.350117,8.118061 
	C54.317574,3.382790 68.729073,11.075170 69.996071,23.013266 
	C70.970001,32.190002 67.260269,39.078003 60.018307,43.081314 
	C53.365326,46.759041 42.268784,45.399654 36.721954,39.225670 
z" />
</svg>